<svg id="Layer_1" data-name="Layer 1" xmlns="http://www.w3.org/2000/svg" viewBox="0 0 279.89267 94"><path d="M134.376,36.97742c0,2.14941,0,3.918.11181,4.85742.06738.64941.20166,1.1416.87305,1.23144a9.72935,9.72935,0,0,0,1.00732.08985c.13428,0,.1792.0664.1792.13379,0,.1123-.11181.17968-.3584.17968-1.23095,0-2.64111-.06738-2.75341-.06738-.11182,0-1.522.06738-2.19336.06738-.24659,0-.3584-.04492-.3584-.17968,0-.06739.04492-.13379.1792-.13379a3.43833,3.43833,0,0,0,.67138-.08985c.44776-.08984.55957-.582.64942-1.23144.11181-.93946.11181-2.708.11181-4.85742V27.50867c-1.09668.02246-2.21582.02246-3.313.04492-1.3877.02246-1.92481.17871-2.28321.71679a3.91753,3.91753,0,0,0-.38037.69336c-.06738.17969-.13428.22364-.22412.22364-.06689,0-.11182-.06641-.11182-.20118,0-.22363.44776-2.14843.49268-2.32812.04443-.13379.13428-.42481.22363-.42481a4.18646,4.18646,0,0,0,.98487.26856c.64941.06738,1.5.11133,1.76855.11133h8.394a8.93681,8.93681,0,0,0,1.58936-.11133c.33594-.04492.53711-.11231.62695-.11231.11182,0,.11182.13477.11182.26856,0,.67187-.0669,2.21582-.0669,2.46289,0,.20117-.06738.291-.15673.291-.11231,0-.15674-.06739-.1792-.38086,0-.08985-.02246-.15723-.02246-.2461-.06739-.67187-.6045-1.18652-2.75342-1.23144-.93994-.02246-1.88037-.02246-2.82031-.04492Z" transform="translate(-26.55999 -10.13924)" fill="#fff"/><path d="M156.5845,33.64245a.11807.11807,0,0,0,.13428-.13476V33.038c0-3.49219,0-4.11914-.04492-4.835-.04444-.76172-.22364-1.11914-.96241-1.27637a4.1736,4.1736,0,0,0-.76123-.06738c-.08935,0-.17871-.04394-.17871-.13379,0-.13476.11182-.17871.35791-.17871,1.00733,0,2.41748.06641,2.5293.06641.11231,0,1.52246-.06641,2.19385-.06641.24609,0,.3584.04395.3584.17871,0,.08985-.08985.13379-.1792.13379a3.31526,3.31526,0,0,0-.55957.06738c-.6045.11231-.78369.49317-.82813,1.27637-.04492.71582-.04492,1.34277-.04492,4.835v3.93946c0,2.14941,0,3.918.11182,4.85742.06738.64941.20166,1.1416.873,1.23144a9.72951,9.72951,0,0,0,1.00733.08985c.13428,0,.1792.0664.1792.13379,0,.1123-.11231.17968-.3584.17968-1.231,0-2.64111-.06738-2.75342-.06738-.11182,0-1.522.06738-2.19336.06738-.24658,0-.3584-.04492-.3584-.17968,0-.06739.04492-.13379.1792-.13379a3.43843,3.43843,0,0,0,.67139-.08985c.44775-.08984.55957-.582.64941-1.23144.11182-.93946.11182-2.708.11182-4.85742V34.62683a.12909.12909,0,0,0-.13428-.13379h-9.49121a.11777.11777,0,0,0-.13428.13379v2.35059c0,2.14941,0,3.918.11182,4.85742.06738.64941.20166,1.1416.87305,1.23144a9.74067,9.74067,0,0,0,1.00732.08985c.13428,0,.1792.0664.1792.13379,0,.1123-.11182.17968-.3584.17968-1.231,0-2.64111-.06738-2.75293-.06738-.1123,0-1.52246.06738-2.19385.06738-.24609,0-.35839-.04492-.35839-.17968,0-.06739.04492-.13379.1792-.13379a3.44819,3.44819,0,0,0,.67187-.08985c.44727-.08984.55957-.582.64893-1.23144.11181-.93946.11181-2.708.11181-4.85742V33.038c0-3.49219,0-4.11914-.04492-4.835-.04443-.76172-.22363-1.11914-.9624-1.27637a4.17218,4.17218,0,0,0-.76074-.06738c-.08985,0-.1792-.04394-.1792-.13379,0-.13476.11181-.17871.35791-.17871,1.00732,0,2.41748.06641,2.52978.06641.11182,0,1.522-.06641,2.19336-.06641.24658,0,.3584.04395.3584.17871,0,.08985-.08984.13379-.1792.13379a3.31537,3.31537,0,0,0-.55957.06738c-.60449.11231-.78369.49317-.82812,1.27637-.04493.71582-.04493,1.34277-.04493,4.835v.46973a.11808.11808,0,0,0,.13428.13476Z" transform="translate(-26.55999 -10.13924)" fill="#fff"/><path d="M166.5264,33.038c0-3.49219,0-4.11914-.04444-4.835-.04492-.76172-.22412-1.11914-.96289-1.27637a5.26158,5.26158,0,0,0-.64892-.06738c-.15674-.02148-.291-.04394-.291-.13379,0-.13476.11182-.17871.35791-.17871.51514,0,1.11914,0,2.52979.06641.15673,0,4.61084,0,5.12548-.02246a3.69486,3.69486,0,0,0,1.03028-.13379.53925.53925,0,0,1,.24609-.08985c.06738,0,.08985.08985.08985.20215a9.66232,9.66232,0,0,0-.17969,1.05176c-.02246.33594-.04492.76074-.08887,1.34277-.02246.22364-.08984.38086-.17969.38086-.13379,0-.17871-.1123-.17871-.291a2.22986,2.22986,0,0,0-.1123-.73926c-.15625-.51465-.627-.73828-1.61133-.82813-.38086-.04492-2.8208-.0664-3.0669-.0664-.08935,0-.13427.0664-.13427.22363v6.17774c0,.15722.02246.22363.13427.22363.291,0,3.04444,0,3.55909-.044.60449-.04492.8955-.1123,1.11914-.38086.1123-.13476.17968-.22363.26855-.22363.06738,0,.11231.04492.11231.17871,0,.13477-.11231.51465-.17871,1.25391-.06739.69336-.06739,1.208-.08985,1.52148-.02246.22461-.06738.33594-.15722.33594-.13379,0-.15625-.17871-.15625-.3584a2.011,2.011,0,0,0-.08985-.626c-.08887-.33593-.3584-.64941-1.16357-.73925-.60449-.06739-2.8208-.11133-3.20117-.11133a.141.141,0,0,0-.15674.15625v1.96973c0,.76171-.02246,3.35742,0,3.82812.04492.918.1792,1.41016.73877,1.63379a5.40236,5.40236,0,0,0,1.85791.20117,7.43948,7.43948,0,0,0,2.01465-.20117c.71582-.22363.96289-.69336,1.1416-1.65625.04492-.24609.08984-.33594.20117-.33594.13476,0,.13476.17871.13476.33594,0,.17871-.17968,1.70117-.291,2.1709-.15723.582-.33594.582-1.209.582-1.65625,0-2.395-.04492-3.26806-.06641-.89551-.02246-1.92529-.06738-2.79834-.06738-.53711,0-1.07422.08887-1.65625.06738-.2461,0-.3584-.04492-.3584-.17968,0-.06739.1123-.11133.24658-.13379a2.88172,2.88172,0,0,0,.51465-.06739c.47022-.1123.76123-.42578.80615-2.10449.022-.87305.04444-2.01465.04444-4.00683Z" transform="translate(-26.55999 -10.13924)" fill="#fff"/><path d="M164.63772,79.04773c.18409,1.6582.50684,4.2373,2.48682,4.88183a9.25627,9.25627,0,0,0,2.855.41407c.23047,0,.50635.04589.50635.27636,0,.27637-.1377.36817-.69043.36817-1.01318,0-6.2627-.1377-7.9668-.27539-1.05908-.09278-1.28955-.23047-1.28955-.46094,0-.18457.09229-.23047.32276-.32227.32226-.13867.27587-.8291.18408-1.6582l-2.21045-24.03809-11.4209,24.22266c-.9668,2.02637-1.105,2.44043-1.51953,2.44043-.32227,0-.55274-.46-1.42774-2.11816-1.19726-2.25684-5.15771-10.22364-5.38769-10.6836-.41455-.8291-5.71045-12.2041-6.2168-13.44726l-1.88818,21.69043c-.04639.73633-.09229,1.38086-.09229,2.16406,0,1.15137.55274,1.51953,1.24317,1.6582a6.94246,6.94246,0,0,0,1.6582.1836c.27637,0,.46045.09277.46045.23047,0,.32226-.23047.41406-.69092.41406-1.70361,0-4.05224-.1377-4.4209-.1377-.41455,0-2.625.1377-3.86816.1377-.46045,0-.78272-.0459-.78272-.36817,0-.18359.23-.27636.46045-.27636a5.93823,5.93823,0,0,0,1.38135-.1377c1.51953-.27637,1.61182-1.93457,1.84229-3.82226l3.31543-29.9336c.04589-.50683.23046-.9209.50683-.9209.27588,0,.46045.18457.69043.69043l14.0918,28.9668,13.53906-28.9209c.18408-.41406.36817-.73633.69043-.73633.32275,0,.46094.36817.55274,1.24317Z" transform="translate(-26.55999 -10.13924)" fill="#fff"/><path d="M179.70364,73.75183a.48424.48424,0,0,0-.46.36914l-2.02637,5.75586a11.61892,11.61892,0,0,0-.7832,3.26953c0,.8291.50684,1.19727,1.51953,1.19727h.32227c.415,0,.55273.13867.55273.32226,0,.23047-.36816.32227-.69043.32227-1.01367,0-3.13183-.1377-3.63867-.1377-.46,0-2.48633.1377-4.42041.1377-.50684,0-.73682-.0918-.73682-.32227,0-.18359.18409-.32226.55274-.32226a6.50762,6.50762,0,0,0,.9209-.0459c1.98047-.1836,2.76269-1.7041,3.5459-3.6377l9.21-24.26953c.50683-1.335.64453-1.56543.96679-1.56543.23047,0,.415.18457.92188,1.47363.64453,1.51954,6.90722,17.5918,9.34765,23.34766,1.51954,3.63867,2.85547,4.23731,3.5,4.46777a4.40686,4.40686,0,0,0,1.56641.2295c.32227,0,.55176.09277.55176.32226,0,.23047-.1836.32227-.69043.32227-.46094,0-3.91406,0-7-.0918-.875-.0459-1.15137-.0918-1.15137-.32226a.38879.38879,0,0,1,.32324-.32227c.1836-.0918.46-.32227.1836-1.0127l-3.6377-9.25683a.41225.41225,0,0,0-.36816-.23047Zm7.8291-1.61133c.1836,0,.1836-.13867.1377-.27637l-3.6377-10.17773c-.23046-.64453-.27636-.64453-.50683,0l-3.4541,10.17773c-.0918.18457,0,.27637.09277.27637Z" transform="translate(-26.55999 -10.13924)" fill="#fff"/><path d="M206.09524,66.70593c0-6.07812,0-7.18359-.09179-8.42676-.0918-1.24414-.41407-1.93457-1.8418-2.21093a7.67271,7.67271,0,0,0-1.10547-.0918c-.32226,0-.50683-.09277-.50683-.27637,0-.18457.13867-.32226.55273-.32226,1.98047,0,4.78906.13769,4.88184.13769.41406,0,3.54589-.13769,4.835-.13769,2.5791,0,5.38769.23046,7.55273,1.75a6.98744,6.98744,0,0,1,2.7627,5.61816c0,2.5332-1.24317,5.75684-4.88086,8.7041,3.36133,4.14453,6.124,7.55176,8.47265,9.99219,2.21094,2.25684,3.59278,2.625,4.88184,2.80957.32226.0459,1.28906.0918,1.42773.0918.36817,0,.50684.13867.50684.32226,0,.23047-.18457.32227-.8291.32227h-3.22363a10.33267,10.33267,0,0,1-4.19043-.55176c-1.93457-.8291-3.31641-2.90137-5.71094-5.9873-1.7959-2.21-3.6377-4.69727-4.4209-5.66407a.655.655,0,0,0-.55273-.27636l-4.74317-.0459c-.18359,0-.23047.0459-.23047.23047v.64453a86.31841,86.31841,0,0,0,.23047,8.70312c.13867,1.10547.27637,2.02637,1.7959,2.21094.46094.0459.96777.0918,1.33594.0918.41406,0,.59863.13867.59863.27636,0,.23047-.18457.36817-.64453.36817-2.39453,0-4.97363-.1377-5.1582-.1377-.73633,0-2.7627.1377-4.00586.1377-.46094,0-.64551-.0918-.64551-.36817,0-.13769.27637-.27636.55273-.27636a3.97,3.97,0,0,0,1.01367-.0918c.78223-.1377,1.0586-.64453,1.19727-1.75.23047-1.6582.18359-5.43359.18359-8.8877Zm3.5459,3.27051a.57515.57515,0,0,0,.23047.55176,11.81214,11.81214,0,0,0,4.09863.59863,5.41339,5.41339,0,0,0,3.08594-.69043c1.38086-.875,2.30176-2.90137,2.30176-5.84863,0-5.01953-2.6709-7.78223-6.76953-7.78223a12.4097,12.4097,0,0,0-2.6709.22949.41953.41953,0,0,0-.27637.415Z" transform="translate(-26.55999 -10.13924)" fill="#fff"/><path d="M239.71731,68.871c2.11817-1.88867,7.1377-6.67773,9.21-8.93457,2.21093-2.44043,2.39453-2.6709,2.39453-3.17773,0-.32227-.1836-.55176-.73633-.73633-.32227-.0918-.50684-.18457-.50684-.36817,0-.13867.09278-.27636.46094-.27636.27637,0,1.65723.13769,3.13086.13769,1.38184,0,3.915-.13769,4.51367-.13769.64453,0,.73633.09179.73633.27636,0,.1836-.1377.32227-.50684.36817a8.14527,8.14527,0,0,0-2.25586.46093c-1.10546.36817-1.7041.875-4.09863,3.03907-3.3623,3.03906-7.36816,6.9541-9.39453,8.7959,2.48633,2.5791,9.94727,9.94726,11.88086,11.69726,3.22363,2.94727,4.79,3.77539,6.63184,4.19043a10.3064,10.3064,0,0,0,1.05859.1377c.415.04589.64551.13867.64551.36914,0,.18359-.23047.27539-.73731.27539h-2.99316c-3.5918,0-4.5127-.41406-6.35547-1.70313-2.07227-1.47363-9.44043-9.02636-13.07813-13.30859v3.63769c0,3.5459-.04589,6.76954.18457,8.42676.1836,1.33594.36817,1.84278,1.56543,2.11914a10.665,10.665,0,0,0,1.75.1836c.41407.04589.50684.13867.50684.32226,0,.18457-.18457.32227-.64551.32227-2.34863,0-5.01953-.1377-5.249-.1377-.13867,0-2.85547.1377-4.14453.1377-.415,0-.73731-.0918-.73731-.32227,0-.18359.18457-.32226.59864-.32226a5.54316,5.54316,0,0,0,1.10546-.1377c.78321-.18457.9209-1.10547,1.0586-2.21094a81.6555,81.6555,0,0,0,.23047-8.38086v-6.9082c0-6.07812,0-7.18359-.0918-8.42676-.0918-1.24414-.36816-1.93457-1.33594-2.11914-.46-.09179-.78222-.09179-1.05859-.13769-.32227-.0459-.50684-.13867-.50684-.32227,0-.23047.18457-.32226.69043-.32226,1.42774,0,4.05274.13769,4.19141.13769.18359,0,2.85449-.13769,4.14453-.13769.46,0,.69043.09179.69043.32226,0,.1836-.1377.27637-.50684.32227-.27636.0459-.50586.0459-.82812.09179-1.33594.18457-1.47461.875-1.56641,2.21094-.09179,1.24317-.0459,2.30274-.0459,8.38086Z" transform="translate(-26.55999 -10.13924)" fill="#fff"/><path d="M271.40481,73.70593c0,5.2959.18457,7.9668.9668,8.7041.73731.64453,1.6582.9209,4.83594.9209,2.02637,0,3.86816,0,4.88086-1.29a5.91338,5.91338,0,0,0,.875-2.30176c.0459-.36914.13867-.55273.36816-.55273.18457,0,.27637.1377.27637.59863a29.71225,29.71225,0,0,1-.55176,4.14453c-.27637.9209-.23047,1.15137-2.4414,1.15137-3.13086,0-6.585-.23047-11.19043-.23047-1.51954,0-2.44043.1377-4.05176.1377-.46094,0-.73731-.0918-.73731-.36817,0-.13769.13867-.27636.50684-.27636a4.50436,4.50436,0,0,0,1.10547-.0918c.78222-.1377,1.05859-1.05957,1.19726-2.16406a74.12432,74.12432,0,0,0,.1836-8.47364v-6.9082c0-6.07812,0-7.0918-.0918-8.335-.0918-1.28906-.27637-2.11816-1.8418-2.30273a8.91606,8.91606,0,0,0-1.15136-.0459c-.32227,0-.50684-.13867-.50684-.32227,0-.23047.23047-.32226.69043-.32226,1.93457,0,4.69727.13769,4.79.13769.64453,0,3.45312-.13769,4.74316-.13769.46,0,.59864.13769.59864.32226,0,.1836-.23047.32227-.50684.32227-.32227,0-.7832.0459-1.24316.09179-1.29.18457-1.56641.9209-1.65821,2.25684-.09179,1.24316-.0459,2.25684-.0459,8.335Z" transform="translate(-26.55999 -10.13924)" fill="#fff"/><path d="M291.76224,66.70593c0-6.03223,0-7.13769-.0918-8.38086-.0918-1.29-.415-1.93457-1.75-2.21094a7.67436,7.67436,0,0,0-1.10547-.09179c-.32227,0-.59863-.13867-.59863-.27637,0-.27637.23047-.36816.6914-.36816.9209,0,2.16407.09179,4.74317.13769.22949,0,8.42676,0,9.34765-.0459a6.43107,6.43107,0,0,0,1.7959-.23047,1.406,1.406,0,0,1,.50684-.13769c.0918,0,.18457.0918.18457.32226,0,.27637-.27637.9209-.36817,2.07227-.04687.7832-.09277,1.51953-.13867,2.39453,0,.415-.09179.69141-.32226.69141s-.32227-.18457-.32227-.50684a4.41062,4.41062,0,0,0-.32226-1.47363c-.27637-.9209-.69141-1.24317-2.99317-1.38184-.59863-.0459-5.1582-.09179-5.25-.09179-.13867,0-.23047.09179-.23047.36816v10.4541c0,.27637.0459.46.27637.46.55273,0,5.25-.0459,6.2168-.13769,1.05957-.0459,1.75-.18457,2.11816-.69141.18457-.27637.32227-.36816.50684-.36816.09179,0,.18457.0459.18457.27636s-.18457,1.10547-.32227,2.44043c-.13867,1.29-.13867,2.21094-.18457,2.80957-.0459.36817-.13867.50684-.32226.50684-.23047,0-.27637-.27637-.27637-.59863a5.12279,5.12279,0,0,0-.13867-1.10547c-.1836-.59863-.46-1.24317-2.21-1.38184-1.05957-.09179-4.78907-.18359-5.52637-.18359-.27637,0-.32227.13769-.32227.32226V73.66c0,1.42774-.0459,5.48047,0,6.2627.0918,1.7041.32227,2.5791,1.28907,2.99316a8.72662,8.72662,0,0,0,3.3623.415,13.71812,13.71812,0,0,0,3.5-.27637c1.38086-.415,1.70313-1.33593,2.07227-3.03906.09179-.46094.22949-.64551.41406-.64551.27637,0,.27637.415.27637.69141,0,.32227-.36817,3.22363-.50684,4.00586-.18359.9209-.50586,1.01367-2.02637,1.01367-3.03906,0-4.32812-.09277-5.94043-.09277-1.61133-.0459-3.72949-.1377-5.43359-.1377-1.05957,0-1.93457.1377-3.03906.1377-.415,0-.64551-.0918-.64551-.32227a.37285.37285,0,0,1,.415-.32226,3.44849,3.44849,0,0,0,.9209-.1377c.8291-.18457,1.38183-.7832,1.47363-3.63867.0459-1.56543.0918-3.45313.0918-6.95313Z" transform="translate(-26.55999 -10.13924)" fill="#fff"/><path d="M34.50256,14.96726c1.23274.37692,2.95127.88538,4.65894,1.42788a28.94056,28.94056,0,0,0,12.58774,1.63829,23.79828,23.79828,0,0,0,13.42984-6.48212c2.01082-1.865,2.729-1.8807,4.67636-.05843,7.22786,6.76327,15.59331,8.18478,24.87344,5.28505,1.661-.519,3.30338-1.10574,4.98217-1.55808a4.92778,4.92778,0,0,1,6.3611,5.68167c-.54776,4.17842-1.18654,8.35744-1.4534,12.5574a67.76485,67.76485,0,0,0,2.433,20.18312,45.22957,45.22957,0,0,1,.69731,19.415c-1.79249,9.08465-7.38275,15.40678-15.78595,19.1057a112.18961,112.18961,0,0,1-12.16918,4.436,22.38362,22.38362,0,0,0-9.92814,6.09277c-1.81826,1.922-2.80733,1.92954-4.6136.02672a23.72512,23.72512,0,0,0-9.91332-6.124A101.57817,101.57817,0,0,1,40.21462,90.549c-9.03457-4.7997-13.08688-12.93707-13.607-22.95063a49.27986,49.27986,0,0,1,1.70792-15.2032,68.968,68.968,0,0,0,.78411-30.92639,5.12342,5.12342,0,0,1,5.40288-6.50151ZM91.20968,87.339a21.065,21.065,0,0,0,8.78279-7.34534L95.519,76.65577c-1.54192,3.6104-3.0148,7.05918-4.48768,10.508l-.1935.20178ZM77.78914,49.89632c.19006-.54276.363-.946.47338-1.36574q2.185-8.307,4.35752-16.61737c.56276-2.13632,1.98815-2.66977,3.7771-1.38066,1.59622,1.15017,3.1465,2.36447,4.70945,3.56049,2.24578,1.71854,2.24069,2.85362-.01414,4.58913A27.373,27.373,0,0,0,82.234,51.64743l6.42376,2.54384C89.5,52.479,90.28508,50.876,91.07625,49.276c1.2717-2.5715,2.18475-2.82637,4.57533-1.14637,2.0515,1.44167,4.04473,2.96636,6.06382,4.45432l.40373-.074c-2.90559-10.90161-2.61158-21.85072-.37485-33.31052-12.39785,5.04535-23.84214,5.35617-34.18711-3.56308A29.60506,29.60506,0,0,1,55.635,21.97653c-6.39514,1.612-12.59695.632-18.712-1.45012-1.02924-.35046-2.07632-.64869-3.09634-.96528.42942,5.6887,1.21973,11.16441,1.14965,16.62909-.07059,5.51365-.99493,11.01634-1.52709,16.34139,1.8698-1.37669,4.00016-3.007,6.19578-4.544,2.12571-1.48805,3.08651-1.21447,4.24366,1.07569.85047,1.68328,1.6756,3.3794,2.547,5.14043l6.29361-2.53763a26.23468,26.23468,0,0,0-9.01173-13.17472c-1.84092-1.41461-1.84825-2.77431-.00362-4.19384,1.60424-1.23446,3.21218-2.46479,4.83832-3.67,1.92168-1.42418,3.36655-.8965,3.96551,1.45064.49975,1.95858.9271,3.93595,1.438,5.89151,1.02933,3.94026,2.09356,7.87139,3.189,11.977,2.71044-1.06518,5.17059-1.988,7.58013-3.02825a1.60992,1.60992,0,0,0,.62792-1.31635c-.37451-4.95691-.94933-9.868-4.06593-14.03785A2.18089,2.18089,0,0,1,61.8071,28.193c1.36608-1.08268,2.75113-2.14174,4.10506-3.23942a2.36464,2.36464,0,0,1,3.34354.057l.00043.00052c1.25972,1.03527,2.55866,2.02254,3.82838,3.04583,1.52331,1.22765,1.696,2.127.544,3.74141-2.98256,4.17971-3.59626,9.007-3.85527,13.92494a1.59545,1.59545,0,0,0,.73937,1.25334c2.36076,1.02028,4.76953,1.92919,7.27647,2.91973Zm16.6035,2.18A251.55506,251.55506,0,0,0,79.11489,92.04626c1.53881-.48139,2.70045-.91046,3.89561-1.20154a3.84788,3.84788,0,0,0,2.79673-2.54737c2.132-5.01578,4.396-9.97554,6.62881-14.94815,1.0626-2.36636,2.17544-2.63425,4.29667-1.07095,1.70991,1.26015,3.40931,2.5347,5.28437,3.93009.3259-.89771.62818-1.60553.84168-2.33921a30.15176,30.15176,0,0,0,.82418-11.87043c-.07774-.70041-.10386-1.62191-.53905-2.03254C100.33587,57.31726,97.421,54.78178,94.39264,52.07633ZM32.82782,76.12706a4.02421,4.02421,0,0,0,.66584-.23221c1.62191-1.20766,3.2358-2.42618,4.85883-3.63238,2.08485-1.54933,3.233-1.26911,4.29228,1.08673,2.32412,5.16939,4.62093,10.351,6.94954,15.51832.22195.49252.48992,1.16672.90607,1.33368,1.72775.69317,3.52058,1.224,5.58656,1.91376A254.96853,254.96853,0,0,0,40.65826,52.09142c-3.02264,2.6964-5.80394,5.13585-8.52017,7.64564a2.53614,2.53614,0,0,0-.70928,1.631,74.48089,74.48089,0,0,0-.00466,8.41768,46.319,46.319,0,0,0,1.40367,6.34144ZM58.34254,54.04017l4.23065,20.12624,2.78518-.839V51.28378Zm18.38771-.00388-7.0216-2.762V53.294q0,8.93825.00009,17.87641c.00008,2.45411.12144,2.5765,2.84689,2.79423ZM65.391,77.77051,56.9013,80.516a99.12812,99.12812,0,0,1,3.18218,10.561c.60663,3.1921,3.15943,3.78115,5.30747,5.46029Zm12.80632,2.73028-8.38536-2.6477V96.3619c1.283-.77876,2.43239-1.43961,3.53782-2.16717a2.35557,2.35557,0,0,0,.98787-1.03588c1.30842-4.16109,2.55383-8.34191,3.85967-12.65815ZM58.52656,75.52448,54.37685,55.61321l-6.11665,2.4092,7.32319,18.45813Zm21.00749.96993L86.814,58.02689l-6.11691-2.42316c-1.40444,6.78-2.76113,13.32994-4.12756,19.92635ZM44.232,87.2145,39.49688,76.67206l-4.36614,3.32742A18.99591,18.99591,0,0,0,44.232,87.21441Z" transform="translate(-26.55999 -10.13924)" fill="#fff"/></svg>