<svg id="Layer_1" data-name="Layer 1" xmlns="http://www.w3.org/2000/svg" viewBox="0 0 145.06605 225.09529"><path d="M571.80847,539.61788c-10.62525-9.10939-21.04622-18.04557-31.46929-26.97932q-32.739-28.061-65.494-56.10338c-4.57865-3.91066-7.24957-8.63317-6.54093-14.73182a15.24545,15.24545,0,0,1,9.83939-13.09394c5.99388-2.46306,11.57285-1.43342,16.46676,2.6723,8.13819,6.82748,16.15485,13.79986,24.22378,20.70994q43.28906,37.0719,86.59741,74.12124c5.38015,4.59255,8.4954,10.11457,6.41717,17.119a19.81038,19.81038,0,0,1-5.65079,8.953q-55.9296,48.24948-112.16679,96.14225a15.83627,15.83627,0,0,1-22.78846-1.66953c-5.88751-7.061-4.87547-16.66505,2.50075-22.98785q47.5425-40.75272,95.11034-81.47588C569.78508,541.49605,570.67347,540.64813,571.80847,539.61788Z" transform="translate(-467.43211 -427.38784)" fill="#fff"/></svg>